HIERARCHY
ROOT Hips
{
	OFFSET 49.647099 -10.441416 100.608002
	CHANNELS 6 Xposition Yposition Zposition Xrotation Yrotation Zrotation
	JOINT spine
	{
		OFFSET 0.000000 -0.507027 8.817047
		CHANNELS 3 Xrotation Yrotation Zrotation
		JOINT spine1
		{
			OFFSET 0.000000 -0.000002 10.776596
			CHANNELS 3 Xrotation Yrotation Zrotation
			JOINT spine2
			{
				OFFSET 0.000000 -0.000001 10.325897
				CHANNELS 3 Xrotation Yrotation Zrotation
				JOINT Neck
				{
					OFFSET 0.000000 -1.263955 26.511002
					CHANNELS 3 Xrotation Yrotation Zrotation
					JOINT Head
					{
						OFFSET 0.000000 -0.000001 8.009659
						CHANNELS 3 Xrotation Yrotation Zrotation
						End Site
						{
							OFFSET 0.000000 6.393857 19.387894
						}
					}
				}
				JOINT RightShoulder
				{
					OFFSET -4.347950 0.605420 11.151199
					CHANNELS 3 Xrotation Yrotation Zrotation
					JOINT RightArm
					{
						OFFSET 0.000000 -0.000003 14.625793
						CHANNELS 3 Xrotation Yrotation Zrotation
						JOINT RightArmRoll
						{
							OFFSET 0.000000 -0.000001 7.383392
							CHANNELS 3 Xrotation Yrotation Zrotation
							JOINT RightForeArm
							{
								OFFSET 0.000000 -0.000004 21.505203
								CHANNELS 3 Xrotation Yrotation Zrotation
								JOINT RightForeArmRoll
								{
									OFFSET 0.000000 -0.000001 8.285324
									CHANNELS 3 Xrotation Yrotation Zrotation
									JOINT RightHand
									{
										OFFSET 0.000000 -0.000003 16.626801
										CHANNELS 3 Xrotation Yrotation Zrotation
										End Site
										{
											OFFSET 0.000000 0.000000 0.100006
										}
									}
								}
							}
						}
					}
				}
				JOINT LeftShoulder
				{
					OFFSET 4.347950 0.605420 11.151199
					CHANNELS 3 Xrotation Yrotation Zrotation
					JOINT LeftArm
					{
						OFFSET 0.000000 -0.000003 14.625793
						CHANNELS 3 Xrotation Yrotation Zrotation
						JOINT LeftArmRoll
						{
							OFFSET 0.000000 -0.000001 7.383392
							CHANNELS 3 Xrotation Yrotation Zrotation
							JOINT LeftForeArm
							{
								OFFSET 0.000000 -0.000004 21.505203
								CHANNELS 3 Xrotation Yrotation Zrotation
								JOINT LeftForeArmRoll
								{
									OFFSET 0.000000 -0.000001 8.285324
									CHANNELS 3 Xrotation Yrotation Zrotation
									JOINT LeftHand
									{
										OFFSET 0.000000 -0.000003 16.626801
										CHANNELS 3 Xrotation Yrotation Zrotation
										End Site
										{
											OFFSET 0.000000 0.000000 0.100006
										}
									}
								}
							}
						}
					}
				}
			}
		}
	}
	JOINT RightUpLeg
	{
		OFFSET -7.815102 1.202170 -1.433090
		CHANNELS 3 Xrotation Yrotation Zrotation
		JOINT RightUpLegRoll
		{
			OFFSET 0.000000 -0.000003 19.495895
			CHANNELS 3 Xrotation Yrotation Zrotation
			JOINT RightLeg
			{
				OFFSET 0.000000 0.000004 -24.142700
				CHANNELS 3 Xrotation Yrotation Zrotation
				JOINT RightLegRoll
				{
					OFFSET 0.000000 -0.000004 24.221703
					CHANNELS 3 Xrotation Yrotation Zrotation
					JOINT RightFoot
					{
						OFFSET 0.000000 -0.000004 20.160500
						CHANNELS 3 Xrotation Yrotation Zrotation
						JOINT RightToeBase
						{
							OFFSET 0.000000 -0.000003 16.853195
							CHANNELS 3 Xrotation Yrotation Zrotation
							End Site
							{
								OFFSET 0.007145 0.940780 8.161865
							}
						}
					}
				}
			}
		}
	}
	JOINT LeftUpLeg
	{
		OFFSET 7.815102 1.202170 -1.433090
		CHANNELS 3 Xrotation Yrotation Zrotation
		JOINT LeftUpLegRoll
		{
			OFFSET 0.000000 -0.000003 19.496002
			CHANNELS 3 Xrotation Yrotation Zrotation
			JOINT LeftLeg
			{
				OFFSET 0.000000 -0.000004 24.142593
				CHANNELS 3 Xrotation Yrotation Zrotation
				JOINT LeftLegRoll
				{
					OFFSET 0.000000 -0.000005 24.445602
					CHANNELS 3 Xrotation Yrotation Zrotation
					JOINT LeftFoot
					{
						OFFSET 0.000000 -0.000003 19.936600
						CHANNELS 3 Xrotation Yrotation Zrotation
						JOINT LeftToeBase
						{
							OFFSET 0.000000 -0.000003 16.853195
							CHANNELS 3 Xrotation Yrotation Zrotation
							End Site
							{
								OFFSET -0.032013 0.940779 8.161865
							}
						}
					}
				}
			}
		}
	}
}
MOTION
Frames: 4
Frame Time: 0.041667
51.386795 -11.437616 100.570007 -1.927170 0.844961 0.385278 -2.179153 -0.200268 -0.173917 -0.356092 -0.395446 -0.353587 1.288981 -0.399808 -0.348709 24.591299 -0.741444 2.957299 -2.518938 7.434369 2.248664 -4.363873 -69.236617 -6.133749 -49.165160 -112.082148 -34.248990 -0.000000 0.000000 -0.000001 0.121021 -14.489073 -0.325363 0.000005 0.000004 -3.026200 -5.000208 -7.998772 0.000153 -10.258597 60.609739 12.226556 -36.226087 115.918870 30.431976 0.000003 0.000001 0.000000 2.782916 12.622174 0.055673 -0.000003 -0.000001 3.000001 -5.000233 7.998723 -0.000170 0.704740 -179.632022 -0.799446 -179.999991 0.000005 -1.043006 174.994241 -2.042184 -0.418817 -0.000001 -0.000000 0.043193 68.587448 6.885581 2.183845 25.456933 -7.363334 0.000005 0.739191 177.116244 2.156769 -0.000005 -0.000004 -1.109660 -8.089297 2.213566 0.478345 -0.000002 0.000003 -0.152703 70.495004 -6.846240 -2.128570 25.799894 7.350414 -0.519995 
51.404396 -11.421717 100.571999 -1.927766 0.849972 0.374991 -2.179694 -0.199839 -0.174407 -0.357178 -0.394690 -0.354549 1.287902 -0.399053 -0.349689 24.592170 -0.736711 2.955528 -2.518678 7.422802 2.248265 -4.374496 -69.231248 -6.145102 -49.155502 -112.079655 -34.246456 -0.000000 0.000000 -0.000001 0.121021 -14.494572 -0.325383 0.000006 0.000005 -3.026010 -5.000211 -7.998773 0.000153 -10.252981 60.610880 12.220059 -36.223738 115.915892 30.429931 0.000003 0.000001 0.000001 2.778125 12.624325 0.055763 -0.000002 -0.000001 3.000001 -5.000230 7.998723 -0.000170 0.701836 -179.636024 -0.803659 -179.999991 0.000005 -1.043006 174.987561 -2.038189 -0.418707 -0.000002 -0.000000 0.043193 68.586383 6.885582 2.183912 25.456936 -7.363334 0.000005 0.732500 177.111231 2.151602 -0.000005 -0.000004 -1.109660 -8.114439 2.215903 0.479227 -0.000001 0.000003 -0.153333 70.513917 -6.846234 -2.128603 25.799892 7.350416 -0.519515 
51.386295 -11.437016 100.560997 -1.928385 0.854950 0.364675 -2.180243 -0.199392 -0.174896 -0.358279 -0.393948 -0.355508 1.286801 -0.398311 -0.350665 24.592941 -0.731780 2.953932 -2.518025 7.411048 2.248049 -4.384737 -69.225968 -6.156046 -49.144509 -112.078036 -34.241900 -0.000001 -0.000000 0.000001 0.121022 -14.499672 -0.325596 0.000005 0.000006 -3.025811 -5.000208 -7.998773 0.000152 -10.247682 60.611993 12.213947 -36.223000 115.912190 30.429459 0.000001 0.000001 -0.000000 2.772797 12.626279 0.055919 -0.000001 -0.000001 3.000000 -5.000230 7.998722 -0.000170 0.699019 -179.640027 -0.808082 -179.999991 0.000005 -1.043005 174.980881 -2.032181 -0.418419 -0.000002 -0.000000 0.043193 68.585440 6.885589 2.183773 25.456931 -7.363334 0.000005 0.725668 177.105221 2.146331 -0.000005 -0.000005 -1.109660 -8.139943 2.218347 0.480111 -0.000001 0.000003 -0.153973 70.533069 -6.846285 -2.128632 25.799896 7.350416 -0.519004 
51.388397 -11.444619 100.564003 -1.929006 0.859903 0.354338 -2.180795 -0.198932 -0.175383 -0.359388 -0.393216 -0.356462 1.285691 -0.397580 -0.351639 24.593408 -0.726711 2.952450 -2.517107 7.399154 2.247971 -4.394723 -69.220702 -6.166717 -49.134236 -112.076718 -34.237911 -0.000003 -0.000000 0.000000 0.121022 -14.504468 -0.325942 0.000006 0.000006 -3.025630 -5.000210 -7.998774 0.000153 -10.242529 60.612902 12.207990 -36.221412 115.909430 30.427851 0.000002 0.000001 0.000001 2.767077 12.628035 0.056128 -0.000000 -0.000001 3.000001 -5.000233 7.998722 -0.000170 0.696253 -179.644016 -0.812653 -179.999991 0.000005 -1.043006 174.974188 -2.027179 -0.418219 -0.000001 -0.000000 0.043193 68.584388 6.885590 2.183837 25.456935 -7.363334 0.000005 0.718732 177.100235 2.140998 -0.000005 -0.000005 -1.109660 -8.165685 2.220856 0.480996 -0.000001 0.000003 -0.154621 70.552535 -6.846297 -2.128637 25.799796 7.350421 -0.518452 
